<svg width="268" height="140" viewBox="0 0 268 140" fill="none" xmlns="http://www.w3.org/2000/svg">
<path d="M5.436 135.216C4.512 135.216 3.702 135.054 3.006 134.73C2.31 134.406 1.764 133.944 1.368 133.344C0.984 132.744 0.786 132.03 0.774 131.202H2.79C2.802 131.874 3.036 132.444 3.492 132.912C3.948 133.38 4.59 133.614 5.418 133.614C6.15 133.614 6.72 133.44 7.128 133.092C7.548 132.732 7.758 132.276 7.758 131.724C7.758 131.28 7.656 130.92 7.452 130.644C7.26 130.368 6.99 130.14 6.642 129.96C6.306 129.78 5.916 129.618 5.472 129.474C5.028 129.33 4.56 129.174 4.068 129.006C3.096 128.682 2.364 128.262 1.872 127.746C1.392 127.23 1.152 126.552 1.152 125.712C1.14 125.004 1.302 124.386 1.638 123.858C1.986 123.33 2.466 122.922 3.078 122.634C3.702 122.334 4.428 122.184 5.256 122.184C6.072 122.184 6.786 122.334 7.398 122.634C8.022 122.934 8.508 123.354 8.856 123.894C9.204 124.422 9.384 125.04 9.396 125.748H7.38C7.38 125.424 7.296 125.118 7.128 124.83C6.96 124.53 6.714 124.284 6.39 124.092C6.066 123.9 5.67 123.804 5.202 123.804C4.602 123.792 4.104 123.942 3.708 124.254C3.324 124.566 3.132 124.998 3.132 125.55C3.132 126.042 3.276 126.42 3.564 126.684C3.852 126.948 4.248 127.17 4.752 127.35C5.256 127.518 5.832 127.716 6.48 127.944C7.104 128.148 7.662 128.394 8.154 128.682C8.646 128.97 9.036 129.348 9.324 129.816C9.624 130.284 9.774 130.878 9.774 131.598C9.774 132.234 9.612 132.828 9.288 133.38C8.964 133.92 8.478 134.364 7.83 134.712C7.182 135.048 6.384 135.216 5.436 135.216ZM15.964 135.216C15.088 135.216 14.308 135.024 13.624 134.64C12.952 134.244 12.424 133.698 12.04 133.002C11.656 132.306 11.464 131.496 11.464 130.572C11.464 129.636 11.65 128.814 12.022 128.106C12.406 127.398 12.934 126.846 13.606 126.45C14.29 126.054 15.082 125.856 15.982 125.856C16.858 125.856 17.62 126.054 18.268 126.45C18.916 126.834 19.42 127.35 19.78 127.998C20.14 128.646 20.32 129.36 20.32 130.14C20.32 130.26 20.314 130.392 20.302 130.536C20.302 130.668 20.296 130.818 20.284 130.986H13.336C13.396 131.85 13.678 132.51 14.182 132.966C14.698 133.41 15.292 133.632 15.964 133.632C16.504 133.632 16.954 133.512 17.314 133.272C17.686 133.02 17.962 132.684 18.142 132.264H20.05C19.81 133.104 19.33 133.806 18.61 134.37C17.902 134.934 17.02 135.216 15.964 135.216ZM15.964 127.422C15.328 127.422 14.764 127.614 14.272 127.998C13.78 128.37 13.48 128.934 13.372 129.69H18.412C18.376 128.994 18.13 128.442 17.674 128.034C17.218 127.626 16.648 127.422 15.964 127.422ZM22.2998 135V122.04H24.2078V135H22.2998ZM30.8 135.216C29.924 135.216 29.144 135.024 28.46 134.64C27.788 134.244 27.26 133.698 26.876 133.002C26.492 132.306 26.3 131.496 26.3 130.572C26.3 129.636 26.486 128.814 26.858 128.106C27.242 127.398 27.77 126.846 28.442 126.45C29.126 126.054 29.918 125.856 30.818 125.856C31.694 125.856 32.456 126.054 33.104 126.45C33.752 126.834 34.256 127.35 34.616 127.998C34.976 128.646 35.156 129.36 35.156 130.14C35.156 130.26 35.15 130.392 35.138 130.536C35.138 130.668 35.132 130.818 35.12 130.986H28.172C28.232 131.85 28.514 132.51 29.018 132.966C29.534 133.41 30.128 133.632 30.8 133.632C31.34 133.632 31.79 133.512 32.15 133.272C32.522 133.02 32.798 132.684 32.978 132.264H34.886C34.646 133.104 34.166 133.806 33.446 134.37C32.738 134.934 31.856 135.216 30.8 135.216ZM30.8 127.422C30.164 127.422 29.6 127.614 29.108 127.998C28.616 128.37 28.316 128.934 28.208 129.69H33.248C33.212 128.994 32.966 128.442 32.51 128.034C32.054 127.626 31.484 127.422 30.8 127.422ZM41.3657 135.216C40.4897 135.216 39.7037 135.018 39.0077 134.622C38.3237 134.226 37.7837 133.68 37.3877 132.984C37.0037 132.276 36.8117 131.46 36.8117 130.536C36.8117 129.612 37.0037 128.802 37.3877 128.106C37.7837 127.398 38.3237 126.846 39.0077 126.45C39.7037 126.054 40.4897 125.856 41.3657 125.856C42.4697 125.856 43.3937 126.144 44.1377 126.72C44.8937 127.296 45.3797 128.076 45.5957 129.06H43.5977C43.4777 128.568 43.2137 128.184 42.8057 127.908C42.3977 127.632 41.9177 127.494 41.3657 127.494C40.8977 127.494 40.4657 127.614 40.0697 127.854C39.6737 128.082 39.3557 128.424 39.1157 128.88C38.8757 129.324 38.7557 129.876 38.7557 130.536C38.7557 131.196 38.8757 131.754 39.1157 132.21C39.3557 132.654 39.6737 132.996 40.0697 133.236C40.4657 133.476 40.8977 133.596 41.3657 133.596C41.9177 133.596 42.3977 133.458 42.8057 133.182C43.2137 132.906 43.4777 132.516 43.5977 132.012H45.5957C45.3917 132.972 44.9117 133.746 44.1557 134.334C43.3997 134.922 42.4697 135.216 41.3657 135.216ZM51.2332 135C50.3572 135 49.6612 134.79 49.1452 134.37C48.6292 133.938 48.3712 133.176 48.3712 132.084V127.674H46.8412V126.072H48.3712L48.6052 123.804H50.2792V126.072H52.7992V127.674H50.2792V132.084C50.2792 132.576 50.3812 132.918 50.5852 133.11C50.8012 133.29 51.1672 133.38 51.6832 133.38H52.7092V135H51.2332ZM62.3257 135.216C61.5697 135.216 60.9457 135.09 60.4537 134.838C59.9617 134.586 59.5957 134.256 59.3557 133.848C59.1157 133.428 58.9957 132.972 58.9957 132.48C58.9957 131.616 59.3317 130.932 60.0037 130.428C60.6757 129.924 61.6357 129.672 62.8837 129.672H65.2237V129.51C65.2237 128.814 65.0317 128.292 64.6477 127.944C64.2757 127.596 63.7897 127.422 63.1897 127.422C62.6617 127.422 62.1997 127.554 61.8037 127.818C61.4197 128.07 61.1857 128.448 61.1017 128.952H59.1937C59.2537 128.304 59.4697 127.752 59.8417 127.296C60.2257 126.828 60.7057 126.474 61.2817 126.234C61.8697 125.982 62.5117 125.856 63.2077 125.856C64.4557 125.856 65.4217 126.186 66.1057 126.846C66.7897 127.494 67.1317 128.382 67.1317 129.51V135H65.4757L65.3137 133.47C65.0617 133.962 64.6957 134.376 64.2157 134.712C63.7357 135.048 63.1057 135.216 62.3257 135.216ZM62.7037 133.668C63.2197 133.668 63.6517 133.548 63.9997 133.308C64.3597 133.056 64.6357 132.726 64.8277 132.318C65.0317 131.91 65.1577 131.46 65.2057 130.968H63.0817C62.3257 130.968 61.7857 131.1 61.4617 131.364C61.1497 131.628 60.9937 131.958 60.9937 132.354C60.9937 132.762 61.1437 133.086 61.4437 133.326C61.7557 133.554 62.1757 133.668 62.7037 133.668ZM73.9635 135V122.4H78.3735C79.3575 122.4 80.1735 122.568 80.8215 122.904C81.4695 123.228 81.9495 123.678 82.2615 124.254C82.5855 124.818 82.7475 125.46 82.7475 126.18C82.7475 126.864 82.5915 127.494 82.2795 128.07C81.9795 128.634 81.5055 129.084 80.8575 129.42C80.2095 129.756 79.3815 129.924 78.3735 129.924H75.8715V135H73.9635ZM75.8715 128.358H78.2835C79.1835 128.358 79.8255 128.166 80.2095 127.782C80.6055 127.386 80.8035 126.852 80.8035 126.18C80.8035 125.484 80.6055 124.944 80.2095 124.56C79.8255 124.164 79.1835 123.966 78.2835 123.966H75.8715V128.358ZM84.6335 135V122.4H88.7195C90.1955 122.4 91.4075 122.658 92.3555 123.174C93.3155 123.69 94.0235 124.422 94.4795 125.37C94.9475 126.306 95.1815 127.422 95.1815 128.718C95.1815 130.002 94.9475 131.118 94.4795 132.066C94.0235 133.002 93.3155 133.728 92.3555 134.244C91.4075 134.748 90.1955 135 88.7195 135H84.6335ZM86.5415 133.38H88.6475C89.7875 133.38 90.6875 133.194 91.3475 132.822C92.0195 132.45 92.4995 131.916 92.7875 131.22C93.0875 130.524 93.2375 129.69 93.2375 128.718C93.2375 127.746 93.0875 126.906 92.7875 126.198C92.4995 125.49 92.0195 124.95 91.3475 124.578C90.6875 124.194 89.7875 124.002 88.6475 124.002H86.5415V133.38ZM97.2897 135V122.4H105.192V123.948H99.1977V127.926H104.166V129.456H99.1977V135H97.2897ZM115.27 135C114.394 135 113.698 134.79 113.182 134.37C112.666 133.938 112.408 133.176 112.408 132.084V127.674H110.878V126.072H112.408L112.642 123.804H114.316V126.072H116.836V127.674H114.316V132.084C114.316 132.576 114.418 132.918 114.622 133.11C114.838 133.29 115.204 133.38 115.72 133.38H116.746V135H115.27ZM122.751 135.216C121.899 135.216 121.131 135.024 120.447 134.64C119.775 134.244 119.241 133.698 118.845 133.002C118.449 132.294 118.251 131.472 118.251 130.536C118.251 129.6 118.449 128.784 118.845 128.088C119.253 127.38 119.799 126.834 120.483 126.45C121.167 126.054 121.929 125.856 122.769 125.856C123.621 125.856 124.383 126.054 125.055 126.45C125.739 126.834 126.279 127.38 126.675 128.088C127.083 128.784 127.287 129.6 127.287 130.536C127.287 131.472 127.083 132.294 126.675 133.002C126.279 133.698 125.739 134.244 125.055 134.64C124.371 135.024 123.603 135.216 122.751 135.216ZM122.751 133.578C123.207 133.578 123.627 133.464 124.011 133.236C124.407 133.008 124.725 132.672 124.965 132.228C125.205 131.772 125.325 131.208 125.325 130.536C125.325 129.864 125.205 129.306 124.965 128.862C124.737 128.406 124.425 128.064 124.029 127.836C123.645 127.608 123.225 127.494 122.769 127.494C122.313 127.494 121.887 127.608 121.491 127.836C121.107 128.064 120.795 128.406 120.555 128.862C120.315 129.306 120.195 129.864 120.195 130.536C120.195 131.208 120.315 131.772 120.555 132.228C120.795 132.672 121.107 133.008 121.491 133.236C121.875 133.464 122.295 133.578 122.751 133.578ZM137.684 135L133.022 122.4H135.056L138.836 133.02L142.634 122.4H144.65L139.988 135H137.684ZM147.27 124.38C146.91 124.38 146.61 124.272 146.37 124.056C146.142 123.828 146.028 123.546 146.028 123.21C146.028 122.874 146.142 122.598 146.37 122.382C146.61 122.154 146.91 122.04 147.27 122.04C147.63 122.04 147.924 122.154 148.152 122.382C148.392 122.598 148.512 122.874 148.512 123.21C148.512 123.546 148.392 123.828 148.152 124.056C147.924 124.272 147.63 124.38 147.27 124.38ZM146.316 135V126.072H148.224V135H146.316ZM154.919 135.216C154.043 135.216 153.263 135.024 152.579 134.64C151.907 134.244 151.379 133.698 150.995 133.002C150.611 132.306 150.419 131.496 150.419 130.572C150.419 129.636 150.605 128.814 150.977 128.106C151.361 127.398 151.889 126.846 152.561 126.45C153.245 126.054 154.037 125.856 154.937 125.856C155.813 125.856 156.575 126.054 157.223 126.45C157.871 126.834 158.375 127.35 158.735 127.998C159.095 128.646 159.275 129.36 159.275 130.14C159.275 130.26 159.269 130.392 159.257 130.536C159.257 130.668 159.251 130.818 159.239 130.986H152.291C152.351 131.85 152.633 132.51 153.137 132.966C153.653 133.41 154.247 133.632 154.919 133.632C155.459 133.632 155.909 133.512 156.269 133.272C156.641 133.02 156.917 132.684 157.097 132.264H159.005C158.765 133.104 158.285 133.806 157.565 134.37C156.857 134.934 155.975 135.216 154.919 135.216ZM154.919 127.422C154.283 127.422 153.719 127.614 153.227 127.998C152.735 128.37 152.435 128.934 152.327 129.69H157.367C157.331 128.994 157.085 128.442 156.629 128.034C156.173 127.626 155.603 127.422 154.919 127.422ZM162.685 135L160.057 126.072H161.965L163.693 132.804L165.637 126.072H167.761L169.705 132.804L171.433 126.072H173.341L170.713 135H168.751L166.699 127.98L164.647 135H162.685ZM179.52 135V122.4H183.606C185.082 122.4 186.294 122.658 187.242 123.174C188.202 123.69 188.91 124.422 189.366 125.37C189.834 126.306 190.068 127.422 190.068 128.718C190.068 130.002 189.834 131.118 189.366 132.066C188.91 133.002 188.202 133.728 187.242 134.244C186.294 134.748 185.082 135 183.606 135H179.52ZM181.428 133.38H183.534C184.674 133.38 185.574 133.194 186.234 132.822C186.906 132.45 187.386 131.916 187.674 131.22C187.974 130.524 188.124 129.69 188.124 128.718C188.124 127.746 187.974 126.906 187.674 126.198C187.386 125.49 186.906 124.95 186.234 124.578C185.574 124.194 184.674 124.002 183.534 124.002H181.428V133.38ZM196.28 135.216C195.428 135.216 194.66 135.024 193.976 134.64C193.304 134.244 192.77 133.698 192.374 133.002C191.978 132.294 191.78 131.472 191.78 130.536C191.78 129.6 191.978 128.784 192.374 128.088C192.782 127.38 193.328 126.834 194.012 126.45C194.696 126.054 195.458 125.856 196.298 125.856C197.15 125.856 197.912 126.054 198.584 126.45C199.268 126.834 199.808 127.38 200.204 128.088C200.612 128.784 200.816 129.6 200.816 130.536C200.816 131.472 200.612 132.294 200.204 133.002C199.808 133.698 199.268 134.244 198.584 134.64C197.9 135.024 197.132 135.216 196.28 135.216ZM196.28 133.578C196.736 133.578 197.156 133.464 197.54 133.236C197.936 133.008 198.254 132.672 198.494 132.228C198.734 131.772 198.854 131.208 198.854 130.536C198.854 129.864 198.734 129.306 198.494 128.862C198.266 128.406 197.954 128.064 197.558 127.836C197.174 127.608 196.754 127.494 196.298 127.494C195.842 127.494 195.416 127.608 195.02 127.836C194.636 128.064 194.324 128.406 194.084 128.862C193.844 129.306 193.724 129.864 193.724 130.536C193.724 131.208 193.844 131.772 194.084 132.228C194.324 132.672 194.636 133.008 195.02 133.236C195.404 133.464 195.824 133.578 196.28 133.578ZM207.11 135.216C206.234 135.216 205.448 135.018 204.752 134.622C204.068 134.226 203.528 133.68 203.132 132.984C202.748 132.276 202.556 131.46 202.556 130.536C202.556 129.612 202.748 128.802 203.132 128.106C203.528 127.398 204.068 126.846 204.752 126.45C205.448 126.054 206.234 125.856 207.11 125.856C208.214 125.856 209.138 126.144 209.882 126.72C210.638 127.296 211.124 128.076 211.34 129.06H209.342C209.222 128.568 208.958 128.184 208.55 127.908C208.142 127.632 207.662 127.494 207.11 127.494C206.642 127.494 206.21 127.614 205.814 127.854C205.418 128.082 205.1 128.424 204.86 128.88C204.62 129.324 204.5 129.876 204.5 130.536C204.5 131.196 204.62 131.754 204.86 132.21C205.1 132.654 205.418 132.996 205.814 133.236C206.21 133.476 206.642 133.596 207.11 133.596C207.662 133.596 208.142 133.458 208.55 133.182C208.958 132.906 209.222 132.516 209.342 132.012H211.34C211.136 132.972 210.656 133.746 209.9 134.334C209.144 134.922 208.214 135.216 207.11 135.216ZM216.703 135.216C215.623 135.216 214.771 134.88 214.147 134.208C213.535 133.536 213.229 132.534 213.229 131.202V126.072H215.137V131.004C215.137 132.732 215.845 133.596 217.261 133.596C217.969 133.596 218.551 133.344 219.007 132.84C219.463 132.336 219.691 131.616 219.691 130.68V126.072H221.599V135H219.907L219.763 133.434C219.487 133.986 219.079 134.424 218.539 134.748C218.011 135.06 217.399 135.216 216.703 135.216ZM224.026 135V126.072H225.718L225.88 127.332C226.168 126.876 226.546 126.516 227.014 126.252C227.494 125.988 228.046 125.856 228.67 125.856C230.086 125.856 231.07 126.414 231.622 127.53C231.946 127.014 232.378 126.606 232.918 126.306C233.47 126.006 234.064 125.856 234.7 125.856C235.816 125.856 236.692 126.192 237.328 126.864C237.964 127.536 238.282 128.538 238.282 129.87V135H236.374V130.068C236.374 128.34 235.714 127.476 234.394 127.476C233.722 127.476 233.17 127.728 232.738 128.232C232.318 128.736 232.108 129.456 232.108 130.392V135H230.2V130.068C230.2 128.34 229.534 127.476 228.202 127.476C227.542 127.476 226.996 127.728 226.564 128.232C226.144 128.736 225.934 129.456 225.934 130.392V135H224.026ZM244.691 135.216C243.815 135.216 243.035 135.024 242.351 134.64C241.679 134.244 241.151 133.698 240.767 133.002C240.383 132.306 240.191 131.496 240.191 130.572C240.191 129.636 240.377 128.814 240.749 128.106C241.133 127.398 241.661 126.846 242.333 126.45C243.017 126.054 243.809 125.856 244.709 125.856C245.585 125.856 246.347 126.054 246.995 126.45C247.643 126.834 248.147 127.35 248.507 127.998C248.867 128.646 249.047 129.36 249.047 130.14C249.047 130.26 249.041 130.392 249.029 130.536C249.029 130.668 249.023 130.818 249.011 130.986H242.063C242.123 131.85 242.405 132.51 242.909 132.966C243.425 133.41 244.019 133.632 244.691 133.632C245.231 133.632 245.681 133.512 246.041 133.272C246.413 133.02 246.689 132.684 246.869 132.264H248.777C248.537 133.104 248.057 133.806 247.337 134.37C246.629 134.934 245.747 135.216 244.691 135.216ZM244.691 127.422C244.055 127.422 243.491 127.614 242.999 127.998C242.507 128.37 242.207 128.934 242.099 129.69H247.139C247.103 128.994 246.857 128.442 246.401 128.034C245.945 127.626 245.375 127.422 244.691 127.422ZM251.026 135V126.072H252.718L252.862 127.638C253.138 127.086 253.54 126.654 254.068 126.342C254.608 126.018 255.226 125.856 255.922 125.856C257.002 125.856 257.848 126.192 258.46 126.864C259.084 127.536 259.396 128.538 259.396 129.87V135H257.506V130.068C257.506 128.34 256.798 127.476 255.382 127.476C254.674 127.476 254.086 127.728 253.618 128.232C253.162 128.736 252.934 129.456 252.934 130.392V135H251.026ZM265.388 135C264.512 135 263.816 134.79 263.3 134.37C262.784 133.938 262.526 133.176 262.526 132.084V127.674H260.996V126.072H262.526L262.76 123.804H264.434V126.072H266.954V127.674H264.434V132.084C264.434 132.576 264.536 132.918 264.74 133.11C264.956 133.29 265.322 133.38 265.838 133.38H266.864V135H265.388Z" fill="#892245"/>
<path d="M179.763 41.1856V61.7784C179.763 82.3711 171.526 90.6083 150.933 90.6083H126.222C105.629 90.6083 97.3917 82.3711 97.3917 61.7784V37.067C97.3917 16.4742 105.629 8.23712 126.222 8.23712H146.814" stroke="#892245" stroke-opacity="0.2" stroke-width="4.25" stroke-linecap="round" stroke-linejoin="round"/>
<path d="M179.763 41.1856H163.289C150.933 41.1856 146.814 37.067 146.814 24.7113V8.23712L179.763 41.1856Z" stroke="#892245" stroke-opacity="0.2" stroke-width="4.25" stroke-linecap="round" stroke-linejoin="round"/>
<path d="M117.985 53.5413H142.696" stroke="#892245" stroke-opacity="0.2" stroke-width="4.25" stroke-linecap="round" stroke-linejoin="round"/>
<path d="M117.985 70.0154H134.459" stroke="#892245" stroke-opacity="0.2" stroke-width="4.25" stroke-linecap="round" stroke-linejoin="round"/>
</svg>
