<svg width="27" height="25" viewBox="0 0 27 25" fill="none" xmlns="http://www.w3.org/2000/svg">
<path fill-rule="evenodd" clip-rule="evenodd" d="M10.3233 2.93125L18.442 6.58397C20.91 7.69431 22.8523 8.56816 24.1699 9.39567C25.4714 10.213 26.4884 11.1821 26.4884 12.5883C26.4884 13.9944 25.4714 14.9635 24.1699 15.7809C22.8523 16.6084 20.91 17.4822 18.442 18.5926L10.3233 22.2453C8.81486 22.9239 7.64138 23.4519 6.7251 23.7945C5.82847 24.1298 5.02713 24.35 4.31459 24.2725C2.58632 24.0846 1.09917 22.8995 0.73924 21.2263C0.586691 20.5172 0.799999 19.7239 1.10647 18.8998C1.42379 18.0465 1.92813 16.951 2.57064 15.5553L2.58796 15.5176C3.09012 14.4268 3.28337 13.9964 3.38197 13.5669C3.5303 12.921 3.5303 12.2555 3.38197 11.6096C3.28337 11.1802 3.09012 10.7497 2.58796 9.65889L2.57064 9.62126C1.92812 8.22554 1.42379 7.12998 1.10647 6.27671C0.799998 5.45262 0.586691 4.65933 0.739241 3.9502C1.09917 2.27705 2.58632 1.09192 4.31459 0.903983C5.02713 0.826499 5.82847 1.0467 6.7251 1.38199C7.64139 1.72463 8.81486 2.25259 10.3233 2.93125ZM6.09464 3.06796C5.21363 2.73851 4.76356 2.66577 4.50918 2.69343C3.4435 2.80932 2.67389 3.51571 2.49898 4.32875C2.46644 4.48003 2.48917 4.83073 2.79358 5.6493C3.0843 6.43103 3.55949 7.46478 4.22303 8.9062C4.23757 8.93778 4.25194 8.96898 4.26614 8.99982C4.71135 9.96664 4.99101 10.5739 5.13631 11.2067C5.34552 12.1178 5.34552 13.0587 5.13631 13.9698C4.99101 14.6026 4.71135 15.2099 4.26613 16.1767C4.25193 16.2076 4.23757 16.2388 4.22303 16.2703C3.55949 17.7118 3.0843 18.7455 2.79358 19.5272C2.48917 20.3458 2.46644 20.6965 2.49898 20.8478C2.67389 21.6608 3.4435 22.3672 4.50918 22.4831C4.76356 22.5108 5.21363 22.438 6.09464 22.1086C6.94942 21.7889 8.06954 21.2855 9.61726 20.5891L17.6307 16.9838C20.1871 15.8337 22.0137 15.0095 23.2126 14.2565C24.4406 13.4853 24.6884 12.9843 24.6884 12.5883C24.6884 12.1922 24.4406 11.6912 23.2126 10.92C22.0137 10.167 20.1871 9.34287 17.6307 8.19274L9.61727 4.58739C8.06954 3.89105 6.94942 3.3876 6.09464 3.06796Z" fill="#892245"/>
<line x1="5" y1="13" x2="15" y2="13" stroke="#892245" stroke-width="2"/>
</svg>
